<?xml version="1.0" standalone="no"?>
<!DOCTYPE svg PUBLIC "-//W3C//DTD SVG 20010904//EN"
 "http://www.w3.org/TR/2001/REC-SVG-20010904/DTD/svg10.dtd">
<svg version="1.0" xmlns="http://www.w3.org/2000/svg"
 width="987.000000pt" height="741.000000pt" viewBox="0 0 987.000000 741.000000"
 preserveAspectRatio="xMidYMid meet">

<g transform="translate(0.000000,741.000000) scale(0.100000,-0.100000)"
fill="#000000" stroke="none">
<path d="M4687 5894 c-825 -124 -1468 -706 -1672 -1513 -39 -155 -56 -287 -57
-431 -1 -326 107 -597 324 -810 282 -278 694 -373 1078 -248 79 25 205 86 268
130 82 56 222 200 279 286 66 99 122 225 152 342 28 108 35 288 15 380 -45
209 -217 389 -424 445 -36 10 -132 17 -282 22 l-227 6 -3 -541 c-3 -528 -3
-541 -24 -568 -12 -17 -40 -34 -70 -43 -41 -14 -49 -20 -52 -43 -5 -46 24 -52
178 -39 73 6 135 9 139 7 3 -2 50 -7 104 -11 106 -8 127 -1 127 41 0 26 -18
38 -71 48 -20 3 -47 18 -60 32 l-24 26 -3 458 c-3 525 -16 469 105 465 91 -2
144 -28 220 -108 100 -104 135 -192 135 -342 1 -273 -139 -557 -362 -740 -345
-282 -783 -215 -1068 164 -207 275 -261 592 -166 973 103 413 352 761 723
1010 417 279 982 395 1351 276 323 -104 541 -393 540 -716 -1 -191 -101 -405
-261 -558 -98 -93 -204 -158 -396 -245 l-31 -14 244 -420 c198 -341 242 -424
237 -445 -3 -14 -30 -99 -60 -189 -86 -264 -97 -330 -97 -571 0 -120 5 -222
11 -245 10 -35 11 -32 5 30 -4 39 -6 140 -6 225 2 263 45 418 199 715 51 99
99 198 105 220 l12 41 -137 234 c-75 129 -145 249 -156 266 l-19 31 68 46
c260 178 424 465 450 785 16 203 -17 374 -108 557 -59 120 -124 208 -222 301
-214 203 -467 297 -786 293 -75 -1 -177 -8 -225 -15z"/>
<path d="M7003 3210 c296 -22 479 -97 710 -290 20 -18 37 -29 37 -26 0 3 -37
36 -82 74 -203 169 -390 241 -648 247 l-135 4 118 -9z"/>
<path d="M6833 3203 c9 -2 23 -2 30 0 6 3 -1 5 -18 5 -16 0 -22 -2 -12 -5z"/>
<path d="M7850 2750 c6 -11 13 -20 16 -20 2 0 0 9 -6 20 -6 11 -13 20 -16 20
-2 0 0 -9 6 -20z"/>
<path d="M7898 2663 c120 -240 138 -568 45 -826 -123 -342 -373 -595 -713
-720 -116 -42 -245 -74 -216 -52 18 13 18 15 2 21 -19 7 -110 0 -137 -11 -18
-7 -81 42 -100 76 -14 27 29 69 70 69 25 0 39 12 93 82 94 123 128 153 198
176 33 12 83 37 109 57 27 19 56 35 64 35 34 0 67 24 79 57 11 31 14 33 25 17
7 -10 13 -27 13 -38 0 -27 11 -13 20 26 l7 33 11 -27 c15 -37 26 -35 18 3 -7
37 19 92 72 151 50 56 114 95 178 109 67 15 76 34 26 55 -36 15 -73 15 -160
-2 -34 -7 -122 20 -122 37 0 4 25 16 55 24 30 9 57 21 60 26 11 16 -53 10
-111 -12 l-58 -22 -18 23 c-10 12 -18 30 -18 40 0 9 -13 42 -29 72 -16 30 -33
71 -36 91 -4 21 -17 49 -28 63 -19 24 -25 26 -71 20 -57 -6 -174 -60 -183 -83
-4 -9 1 -20 11 -25 29 -16 97 -129 87 -142 -6 -7 -6 -17 -1 -26 14 -22 12 -40
-5 -40 -9 0 -30 -16 -47 -35 -44 -51 -99 -80 -248 -131 -194 -66 -425 -186
-584 -303 -32 -24 -60 -50 -63 -59 -3 -9 -15 -25 -27 -34 -18 -14 -19 -20 -9
-37 11 -18 8 -22 -40 -48 -29 -16 -61 -35 -72 -42 -19 -12 -28 -8 -90 39 -39
28 -70 55 -70 60 0 5 -25 39 -56 77 -142 174 -228 339 -286 553 -15 56 -21 70
-18 40 8 -65 67 -235 113 -327 55 -107 197 -325 210 -320 4 1 8 -2 10 -8 5
-19 126 -135 141 -135 11 0 10 -4 -5 -15 -19 -15 -19 -16 1 -13 11 1 54 -20
96 -48 l76 -50 -44 -49 c-55 -62 -127 -165 -120 -172 11 -11 85 9 133 36 27
16 73 50 102 76 l53 48 87 -27 c168 -51 236 -61 417 -61 240 0 377 31 575 130
166 83 341 238 443 392 185 278 253 649 171 930 -24 85 -97 253 -108 253 -4 0
7 -26 22 -57z m-383 -743 c0 -44 -31 -56 -41 -16 -8 35 2 58 23 54 13 -2 18
-13 18 -38z m-1666 -474 c-2 -2 -13 8 -23 22 l-19 27 24 -22 c12 -12 21 -24
18 -27z m454 -158 l-101 -101 -76 43 c-42 24 -73 47 -69 51 25 22 282 106 333
108 8 1 -31 -45 -87 -101z m242 -49 c-6 -19 -4 -21 16 -15 68 19 73 18 91 -13
9 -17 46 -51 82 -77 69 -50 79 -64 46 -64 -10 0 -23 -8 -29 -17 -8 -16 -17
-16 -103 -5 -100 12 -219 41 -282 67 l-39 17 83 44 c46 25 95 53 109 64 33 25
34 24 26 -1z m338 -196 c-7 -2 -21 -2 -30 0 -10 3 -4 5 12 5 17 0 24 -2 18 -5z"/>
</g>
</svg>
